<?xml version="1.0" ?><svg height="64" viewBox="0 0 64 64" width="64" xmlns="http://www.w3.org/2000/svg"><defs><style>.cls-1{fill:#f25c00;}</style></defs><title/><g data-name="Слой 7" id="Слой_7"><path class="cls-1" d="M32,0A32,32,0,1,0,64,32,32.036,32.036,0,0,0,32,0ZM49.89,56.066a1.022,1.022,0,0,0-.12-.019,41.9,41.9,0,0,1-9.024-.721c-1.865-.281-3.794-.572-5.708-.71a36.681,36.681,0,0,0-13.758,1.669,1,1,0,0,0,.307,1.952,1.017,1.017,0,0,0,.307-.048,34.694,34.694,0,0,1,13-1.579c1.835.133,3.725.418,5.553.693,2.1.317,4.251.636,6.4.746A29.994,29.994,0,1,1,32,2,29.807,29.807,0,0,1,47.138,6.115a19.546,19.546,0,0,1-6.23,1.974,39.8,39.8,0,0,1-10.154-.11c-.922-.106-1.845-.228-2.767-.348a58.547,58.547,0,0,0-9.509-.715,1,1,0,0,0-.967,1.031.961.961,0,0,0,1.032.967,58.04,58.04,0,0,1,9.186.7c.932.122,1.864.243,2.8.351a53.85,53.85,0,0,0,6.191.407,30.976,30.976,0,0,0,4.482-.3A20.958,20.958,0,0,0,49.042,7.33q.953.661,1.853,1.39c-3.628,3.1-8.22,5.571-14.408,7.747a84.366,84.366,0,0,1-29.8,4.79,1.032,1.032,0,0,0-1.019.981,1,1,0,0,0,.981,1.019q.839.016,1.677.016A86.588,86.588,0,0,0,37.15,18.354c6.553-2.3,11.413-4.953,15.27-8.3a30.144,30.144,0,0,1,6.78,9.315c-2.987,3.9-7.976,6.694-14.142,7.876a58.173,58.173,0,0,1-10.564.835,1,1,0,0,0,0,2h0a60.17,60.17,0,0,0,10.934-.87c6.191-1.187,11.312-3.925,14.644-7.759a29.962,29.962,0,0,1,.523,19.6,29.035,29.035,0,0,1-5.8,2.323,1,1,0,0,0,.267,1.964,1.021,1.021,0,0,0,.269-.036A30.491,30.491,0,0,0,59.6,43.754q-.588,1.375-1.307,2.676c-5.065,1.741-10.318,1.522-16.161,1.077-2.434-.187-4.909-.462-7.3-.729-3.725-.415-7.576-.844-11.406-.954a45.291,45.291,0,0,0-13.076,1.322,1,1,0,1,0,.52,1.932,42.83,42.83,0,0,1,12.5-1.254c3.747.106,7.557.531,11.241.941,2.412.269,4.905.547,7.373.735,2.277.174,4.531.317,6.756.317a33.879,33.879,0,0,0,7.983-.844A30.247,30.247,0,0,1,49.89,56.066ZM4.981,32.824a1,1,0,0,1-.341-1.94,56.057,56.057,0,0,1,6.966-2.022,39.6,39.6,0,0,1,6.67-.806,7,7,0,0,1,11.673-3,1,1,0,0,1-1.414,1.414,5,5,0,1,0,0,7.07,1,1,0,0,1,1.414,1.414A7,7,0,0,1,18,30.074a36.968,36.968,0,0,0-5.966.74,53.878,53.878,0,0,0-6.716,1.95A1.017,1.017,0,0,1,4.981,32.824ZM6.7,40.648q-.461.113-.915.247a1,1,0,1,1-.57-1.916q.5-.149,1.01-.274a32.111,32.111,0,0,1,11.8-.225c4.154.572,8.283,1.547,12.276,2.489,3.366.795,6.847,1.616,10.3,2.185,1.987.327,4.2.679,6.4.854a3,3,0,0,1,5.119-2.129,1,1,0,0,1-1.414,1.414,1,1,0,1,0,0,1.414,1,1,0,0,1,1.414,1.414,3,3,0,0,1-4.242,0c-.014-.014-.023-.031-.037-.045a69.189,69.189,0,0,1-7.569-.949c-3.519-.578-7.033-1.408-10.432-2.211-3.947-.932-8.029-1.9-12.089-2.455A29.263,29.263,0,0,0,6.7,40.648ZM61,58a3,3,0,1,0,3,3A3,3,0,0,0,61,58Zm0,4a1,1,0,1,1,1-1A1,1,0,0,1,61,62Zm0-11a3,3,0,1,0,3,3A3,3,0,0,0,61,51Zm0,4a1,1,0,1,1,1-1A1,1,0,0,1,61,55Z"/></g></svg>