<?xml version="1.0" ?><svg style="enable-background:new 0 0 24 24;" version="1.1" viewBox="0 0 24 24" xml:space="preserve" xmlns="http://www.w3.org/2000/svg" xmlns:xlink="http://www.w3.org/1999/xlink"><style type="text/css">
	.st0{display:none;}
</style><g class="st0" id="grid"/><g id="icon"><path d="M22.124,6.055c0.501-0.502,0.501-1.318,0-1.82l-2.357-2.357c-0.486-0.486-1.335-0.485-1.82,0l-5.742,5.742   c-0.112,0.111-0.294,0.111-0.406,0L6.055,1.877c-0.486-0.486-1.334-0.487-1.821,0L1.876,4.234c-0.501,0.502-0.501,1.318,0,1.82   l5.742,5.742c0.112,0.112,0.112,0.294,0,0.406l-5.743,5.742c-0.501,0.502-0.501,1.318,0,1.82l2.357,2.357   c0.487,0.487,1.336,0.486,1.82,0l5.742-5.742c0.112-0.111,0.294-0.111,0.406,0l5.742,5.742c0.243,0.243,0.566,0.377,0.911,0.377   c0.344,0,0.667-0.134,0.91-0.377l2.358-2.357c0.501-0.502,0.501-1.318,0-1.82l-5.742-5.742c-0.112-0.112-0.112-0.294,0-0.406   L22.124,6.055z M15.673,12.91C15.674,12.91,15.674,12.91,15.673,12.91l5.742,5.742c0.112,0.112,0.112,0.294,0,0.406l-2.357,2.357   c-0.108,0.109-0.298,0.109-0.406,0l-5.742-5.742c-0.251-0.251-0.581-0.376-0.91-0.376s-0.659,0.125-0.91,0.376l-5.743,5.742   c-0.107,0.109-0.297,0.109-0.406,0l-2.357-2.357c-0.112-0.112-0.112-0.294,0-0.406l5.743-5.742c0.501-0.502,0.501-1.318,0-1.82   L2.584,5.348c-0.112-0.112-0.112-0.294,0-0.406l2.357-2.357c0.108-0.109,0.298-0.109,0.406,0l5.742,5.742   c0.502,0.502,1.318,0.502,1.82,0l5.743-5.742c0.107-0.109,0.297-0.109,0.406,0l2.357,2.357c0.112,0.112,0.112,0.294,0,0.406   l-5.743,5.742C15.172,11.592,15.172,12.408,15.673,12.91z"/></g></svg>